<svg width="107" height="106" viewBox="0 0 107 106" fill="none" xmlns="http://www.w3.org/2000/svg">
<g filter="url(#filter0_d_26_433)">
<path d="M23.5 37.0175C23.5 29.2758 29.8092 23 37.5509 23C62.8676 23 83.5 43.5233 83.5 68.84V69.45C83.5 76.9335 77.3271 83 69.8436 83C44.4482 83 23.5 62.4129 23.5 37.0175Z" fill="#A252E0"/>
<path d="M24.5 37.0175C24.5 36.7305 24.5093 36.4459 24.5277 36.1638L23.5298 36.0989C23.57 35.4806 23.6505 34.8732 23.7687 34.2793L24.7494 34.4744C24.8613 33.9122 25.0096 33.363 25.1917 32.8294L24.2453 32.5064C24.4442 31.9235 24.6805 31.3579 24.9515 30.8123L25.8471 31.2571C26.1008 30.7462 26.3873 30.254 26.7038 29.7835L25.874 29.2254C26.2163 28.7164 26.5911 28.231 26.9955 27.7722L27.7457 28.4333C28.122 28.0064 28.5258 27.6041 28.9542 27.2293L28.2959 26.4766C28.7561 26.0741 29.2429 25.701 29.7531 25.3603L30.3084 26.192C30.7801 25.8771 31.2732 25.5921 31.7852 25.3397L31.3429 24.4428C31.8892 24.1735 32.4555 23.9385 33.0388 23.7408L33.3598 24.6879C33.8941 24.5068 34.4438 24.3593 35.0064 24.2481L34.8124 23.2671C35.4066 23.1496 36.0141 23.0696 36.6323 23.0296L36.6968 24.0275C36.9791 24.0093 37.2638 24 37.5509 24C37.8793 24 38.2069 24.0035 38.5337 24.0106L38.5552 23.0108C39.2253 23.0252 39.8919 23.054 40.5548 23.0968L40.4903 24.0947C41.1443 24.137 41.7946 24.1933 42.4408 24.2633L42.5485 23.2691C43.2143 23.3413 43.8758 23.4276 44.5328 23.5279L44.3819 24.5165C45.0299 24.6154 45.6734 24.7281 46.3121 24.8544L46.5061 23.8734C47.1631 24.0033 47.8151 24.1473 48.4618 24.3049L48.225 25.2765C48.8611 25.4315 49.492 25.6001 50.1172 25.7818L50.3964 24.8216C51.0389 25.0084 51.6756 25.2088 52.3063 25.4226L51.9852 26.3696C52.6048 26.5796 53.2184 26.8028 53.8256 27.0387L54.1878 26.1066C54.811 26.3488 55.4277 26.6042 56.0375 26.8724L55.6349 27.7878C56.2334 28.051 56.8252 28.327 57.4098 28.6152L57.852 27.7183C58.4514 28.0138 59.0435 28.3221 59.6279 28.6426L59.147 29.5194C59.7201 29.8337 60.2856 30.1601 60.8432 30.4984L61.3618 29.6433C61.9331 29.9899 62.4963 30.3484 63.051 30.7188L62.4957 31.5504C63.0393 31.9133 63.5745 32.2877 64.101 32.6732L64.6918 31.8664C65.2306 32.261 65.7606 32.667 66.2813 33.0841L65.6561 33.8645C66.166 34.273 66.6668 34.6922 67.1582 35.122L67.8165 34.3693C68.319 34.8088 68.8119 35.2591 69.2947 35.7197L68.6044 36.4433C69.0769 36.8941 69.5396 37.355 69.9922 37.8258L70.7131 37.1328C71.1756 37.614 71.6277 38.1051 72.0691 38.606L71.3188 39.2671C71.7504 39.7569 72.1715 40.2562 72.5818 40.7645L73.36 40.1365C73.7789 40.6557 74.1868 41.1842 74.5833 41.7216L73.7786 42.3152C74.166 42.8404 74.5422 43.3742 74.9069 43.9165L75.7366 43.3584C76.1089 43.9118 76.4693 44.4738 76.8177 45.0439L75.9643 45.5653C76.3044 46.1218 76.6326 46.6863 76.9486 47.2583L77.8239 46.7747C78.1462 47.3581 78.4562 47.9493 78.7534 48.5478L77.8578 48.9926C78.1476 49.5764 78.4252 50.1673 78.6899 50.765L79.6042 50.36C79.8741 50.9691 80.131 51.5852 80.3746 52.2078L79.4433 52.5722C79.6807 53.1788 79.9051 53.7918 80.1164 54.4108L81.0628 54.0879C81.2779 54.7181 81.4795 55.3544 81.6675 55.9966L80.7077 56.2775C80.8906 56.9023 81.0602 57.5328 81.2161 58.1686L82.1873 57.9303C82.3459 58.5768 82.4907 59.2286 82.6214 59.8855L81.6407 60.0806C81.7677 60.719 81.8811 61.3623 81.9806 62.0101L82.969 61.8583C83.0699 62.5152 83.1568 63.1767 83.2293 63.8424L82.2352 63.9508C82.3056 64.5968 82.3622 65.2469 82.4047 65.901L83.4026 65.8361C83.4457 66.4988 83.4747 67.1655 83.4892 67.8356L82.4894 67.8572C82.4965 68.184 82.5 68.5116 82.5 68.84V68.9925H83.5V69.2975H82.5V69.45C82.5 69.7829 82.4868 70.1126 82.461 70.4386L83.4578 70.5177C83.4008 71.237 83.2867 71.9405 83.1201 72.624L82.1485 72.3871C81.9912 73.0323 81.7833 73.6582 81.5291 74.2606L82.4504 74.6493C82.1723 75.3085 81.8431 75.9414 81.4678 76.5431L80.6193 76.0139C80.2695 76.5746 79.8765 77.1065 79.4447 77.6047L80.2005 78.2596C79.7344 78.7975 79.2267 79.299 78.6826 79.759L78.037 78.9953C77.5337 79.4208 76.997 79.8079 76.4315 80.1522L76.9516 81.0064C76.3462 81.375 75.7101 81.6981 75.0485 81.971L74.6673 81.0465C74.0619 81.2962 73.4335 81.5003 72.7865 81.6547L73.0187 82.6274C72.334 82.7908 71.63 82.9027 70.9112 82.9586L70.8337 81.9616C70.5069 81.987 70.1767 82 69.8436 82C69.5134 82 69.1841 81.9964 68.8555 81.9894L68.834 82.9891C68.1604 82.9746 67.4901 82.9457 66.8235 82.9025L66.8881 81.9046C66.2305 81.862 65.5766 81.8054 64.9266 81.7349L64.8188 82.7291C64.1496 82.6566 63.4844 82.5697 62.8236 82.4689L62.9745 81.4804C62.323 81.3809 61.6759 81.2676 61.0335 81.1407L60.8397 82.1218C60.1793 81.9913 59.5237 81.8468 58.8733 81.6885L59.1097 80.7169C58.47 80.5612 57.8355 80.392 57.2065 80.2096L56.9279 81.17C56.2819 80.9826 55.6415 80.7816 55.0072 80.5672L55.3273 79.6198C54.7041 79.4092 54.0868 79.1854 53.4757 78.9488L53.1147 79.8814C52.4878 79.6387 51.8674 79.3827 51.2538 79.114L51.655 78.198C51.0527 77.9342 50.4571 77.6577 49.8685 77.3689L49.428 78.2666C48.8248 77.9706 48.2288 77.6619 47.6405 77.341L48.1195 76.4631C47.5424 76.1483 46.9728 75.8213 46.4111 75.4826L45.8947 76.339C45.3194 75.9921 44.7522 75.6331 44.1934 75.2624L44.7462 74.4291C44.1984 74.0658 43.659 73.6909 43.1282 73.3049L42.54 74.1137C41.9969 73.7187 41.4627 73.3124 40.9377 72.8949L41.56 72.1122C41.0457 71.7033 40.5405 71.2835 40.0447 70.8532L39.3892 71.6085C38.8822 71.1685 38.3849 70.7178 37.8975 70.2567L38.5848 69.5303C38.1077 69.0789 37.6404 68.6173 37.1832 68.1459L36.4653 68.842C35.9982 68.3603 35.5414 67.8685 35.0954 67.367L35.8426 66.7024C35.4063 66.2118 34.9805 65.7117 34.5656 65.2025L33.7903 65.8342C33.3666 65.3141 32.9539 64.7847 32.5528 64.2464L33.3546 63.6489C32.9625 63.1226 32.5816 62.5876 32.2123 62.0442L31.3852 62.6063C31.0082 62.0516 30.6431 61.4884 30.2902 60.917L31.141 60.3915C30.7963 59.8335 30.4636 59.2675 30.1431 58.6939L29.2701 59.1816C28.9432 58.5965 28.6288 58.0036 28.3272 57.4032L29.2208 56.9543C28.9265 56.3686 28.6448 55.7757 28.376 55.176L27.4635 55.5851C27.1894 54.9738 26.9285 54.3555 26.6809 53.7305L27.6107 53.3623C27.3695 52.7533 27.1413 52.1379 26.9266 51.5164L25.9814 51.843C25.7627 51.2102 25.5576 50.5711 25.3664 49.9262L26.3252 49.642C26.1391 49.0144 25.9666 48.3811 25.8078 47.7425L24.8374 47.9837C24.6759 47.3341 24.5285 46.6792 24.3954 46.0191L25.3756 45.8214C25.2463 45.18 25.1307 44.5336 25.0294 43.8826L24.0413 44.0365C23.9385 43.3762 23.8499 42.7113 23.776 42.042L24.7699 41.9322C24.6982 41.2829 24.6405 40.6293 24.5971 39.9719L23.5993 40.0377C23.5553 39.3714 23.5258 38.7011 23.5111 38.0274L24.5108 38.0054C24.5036 37.677 24.5 37.3477 24.5 37.0175Z" stroke="black" stroke-width="2" stroke-dasharray="2 2"/>
<g clip-path="url(#clip0_26_433)">
<path d="M63.9943 51.3156C64.2985 51.3156 64.4506 51.4677 64.4506 51.7719V65.4601C64.4506 65.7643 64.2985 65.9164 63.9943 65.9164H39.3555C39.0513 65.9164 38.8992 65.7643 38.8992 65.4601V59.0723C38.8992 58.7681 39.0513 58.616 39.3555 58.616H47.1122V55.4221C47.1122 55.1179 47.2643 54.9658 47.5684 54.9658H55.3251V51.7719C55.3251 51.4677 55.4772 51.3156 55.7814 51.3156H63.9943ZM48.0247 55.8784V65.0038H55.3251V55.8784H48.0247ZM39.8118 59.5285V65.0038H47.1122V59.5285H39.8118ZM63.538 65.0038V52.2282H56.2376V65.0038H63.538ZM64.4506 41.6198C64.4506 41.6959 64.4506 41.7529 64.4506 41.7909C64.4506 41.905 64.4125 42 64.3365 42.0761L62.6825 43.7871L63.0247 46.2396C63.0627 46.2396 63.0817 46.2586 63.0817 46.2966C63.0817 46.6008 62.9297 46.7529 62.6255 46.7529C62.5114 46.7529 62.4354 46.7339 62.3973 46.6959L60.3441 45.5552L58.2909 46.6959C58.2529 46.7339 58.1768 46.7529 58.0627 46.7529C57.7586 46.7529 57.6065 46.6008 57.6065 46.2966C57.6065 46.2586 57.6255 46.2396 57.6635 46.2396L58.0057 43.7871L56.3517 42.0761C56.2757 42 56.2376 41.905 56.2376 41.7909C56.2376 41.5247 56.3707 41.3727 56.6369 41.3346L58.9182 40.9924L59.9449 38.8251C60.0209 38.635 60.154 38.54 60.3441 38.54C60.5342 38.54 60.6673 38.635 60.7433 38.8251L61.77 40.9924L64.0513 41.3346C64.2414 41.3727 64.3745 41.4677 64.4506 41.6198ZM61.827 43.3308L63.0247 42.0761L61.4278 41.8479C61.2376 41.8099 61.1236 41.7339 61.0856 41.6198L60.3441 40.0799L59.6027 41.6198C59.5646 41.7339 59.4506 41.8099 59.2605 41.8479L57.6635 42.0761L58.8612 43.3308C58.9373 43.4069 58.9753 43.5209 58.9753 43.673C58.9753 43.673 58.9753 43.692 58.9753 43.7301L58.6901 45.4411L60.116 44.6426C60.192 44.6046 60.2681 44.5856 60.3441 44.5856C60.4202 44.5856 60.4962 44.6046 60.5722 44.6426L61.9981 45.4411L61.7129 43.7301C61.7129 43.692 61.7129 43.673 61.7129 43.673C61.7129 43.5209 61.7509 43.4069 61.827 43.3308ZM39.3555 52.6844C39.0513 52.6844 38.8992 52.5324 38.8992 52.2282C38.8992 51.924 39.0513 51.7719 39.3555 51.7719H44.0894L45.8004 48.3498C45.8764 48.1978 46.0095 48.1217 46.1996 48.1217H52.3593L54.4696 44.6997C54.5836 44.5476 54.7167 44.4715 54.8688 44.4715C55.173 44.4715 55.3251 44.6236 55.3251 44.9278C55.3251 45.0038 55.3061 45.0799 55.2681 45.1559L52.9867 48.8061C52.8726 48.9582 52.7395 49.0343 52.5875 49.0343H46.4848L44.7738 52.4563C44.6977 52.6084 44.5646 52.6844 44.3745 52.6844H39.3555Z" fill="black"/>
</g>
</g>
<defs>
<filter id="filter0_d_26_433" x="0.5" y="0" width="106" height="106" filterUnits="userSpaceOnUse" color-interpolation-filters="sRGB">
<feFlood flood-opacity="0" result="BackgroundImageFix"/>
<feColorMatrix in="SourceAlpha" type="matrix" values="0 0 0 0 0 0 0 0 0 0 0 0 0 0 0 0 0 0 127 0" result="hardAlpha"/>
<feMorphology radius="3" operator="dilate" in="SourceAlpha" result="effect1_dropShadow_26_433"/>
<feOffset/>
<feGaussianBlur stdDeviation="10"/>
<feComposite in2="hardAlpha" operator="out"/>
<feColorMatrix type="matrix" values="0 0 0 0 0 0 0 0 0 0 0 0 0 0 0 0 0 0 0.05 0"/>
<feBlend mode="normal" in2="BackgroundImageFix" result="effect1_dropShadow_26_433"/>
<feBlend mode="normal" in="SourceGraphic" in2="effect1_dropShadow_26_433" result="shape"/>
</filter>
<clipPath id="clip0_26_433">
<rect width="30" height="30" fill="white" transform="matrix(1 0 0 -1 38.5 67)"/>
</clipPath>
</defs>
</svg>
