<svg width="107" height="106" viewBox="0 0 107 106" fill="none" xmlns="http://www.w3.org/2000/svg">
<g filter="url(#filter0_d_26_496)">
<path d="M23.5 37.0175C23.5 29.2758 29.8092 23 37.5509 23C62.8676 23 83.5 43.5233 83.5 68.84V69.45C83.5 76.9335 77.3271 83 69.8436 83C44.4482 83 23.5 62.4129 23.5 37.0175Z" fill="#6B5CE9"/>
<path d="M24.5 37.0175C24.5 36.7305 24.5093 36.4459 24.5277 36.1638L23.5298 36.0989C23.57 35.4806 23.6505 34.8732 23.7687 34.2793L24.7494 34.4744C24.8613 33.9122 25.0096 33.363 25.1917 32.8294L24.2453 32.5064C24.4442 31.9235 24.6805 31.3579 24.9515 30.8123L25.8471 31.2571C26.1008 30.7462 26.3873 30.254 26.7038 29.7835L25.874 29.2254C26.2163 28.7164 26.5911 28.231 26.9955 27.7722L27.7457 28.4333C28.122 28.0064 28.5258 27.6041 28.9542 27.2293L28.2959 26.4766C28.7561 26.0741 29.2429 25.701 29.7531 25.3603L30.3084 26.192C30.7801 25.8771 31.2732 25.5921 31.7852 25.3397L31.3429 24.4428C31.8892 24.1735 32.4555 23.9385 33.0388 23.7408L33.3598 24.6879C33.8941 24.5068 34.4438 24.3593 35.0064 24.2481L34.8124 23.2671C35.4066 23.1496 36.0141 23.0696 36.6323 23.0296L36.6968 24.0275C36.9791 24.0093 37.2638 24 37.5509 24C37.8793 24 38.2069 24.0035 38.5337 24.0106L38.5552 23.0108C39.2253 23.0252 39.8919 23.054 40.5548 23.0968L40.4903 24.0947C41.1443 24.137 41.7946 24.1933 42.4408 24.2633L42.5485 23.2691C43.2143 23.3413 43.8758 23.4276 44.5328 23.5279L44.3819 24.5165C45.0299 24.6154 45.6734 24.7281 46.3121 24.8544L46.5061 23.8734C47.1631 24.0033 47.8151 24.1473 48.4618 24.3049L48.225 25.2765C48.8611 25.4315 49.492 25.6001 50.1172 25.7818L50.3964 24.8216C51.0389 25.0084 51.6756 25.2088 52.3063 25.4226L51.9852 26.3696C52.6048 26.5796 53.2184 26.8028 53.8256 27.0387L54.1878 26.1066C54.811 26.3488 55.4277 26.6042 56.0375 26.8724L55.6349 27.7878C56.2334 28.051 56.8252 28.327 57.4098 28.6152L57.852 27.7183C58.4514 28.0138 59.0435 28.3221 59.6279 28.6426L59.147 29.5194C59.7201 29.8337 60.2856 30.1601 60.8432 30.4984L61.3618 29.6433C61.9331 29.9899 62.4963 30.3484 63.051 30.7188L62.4957 31.5504C63.0393 31.9133 63.5745 32.2877 64.101 32.6732L64.6918 31.8664C65.2306 32.261 65.7606 32.667 66.2813 33.0841L65.6561 33.8645C66.166 34.273 66.6668 34.6922 67.1582 35.122L67.8165 34.3693C68.319 34.8088 68.8119 35.2591 69.2947 35.7197L68.6044 36.4433C69.0769 36.8941 69.5396 37.355 69.9922 37.8258L70.7131 37.1328C71.1756 37.614 71.6277 38.1051 72.0691 38.606L71.3188 39.2671C71.7504 39.7569 72.1715 40.2562 72.5818 40.7645L73.36 40.1365C73.7789 40.6557 74.1868 41.1842 74.5833 41.7216L73.7786 42.3152C74.166 42.8404 74.5422 43.3742 74.9069 43.9165L75.7366 43.3584C76.1089 43.9118 76.4693 44.4738 76.8177 45.0439L75.9643 45.5653C76.3044 46.1218 76.6326 46.6863 76.9486 47.2583L77.8239 46.7747C78.1462 47.3581 78.4562 47.9493 78.7534 48.5478L77.8578 48.9926C78.1476 49.5764 78.4252 50.1673 78.6899 50.765L79.6042 50.36C79.8741 50.9691 80.131 51.5852 80.3746 52.2078L79.4433 52.5722C79.6807 53.1788 79.9051 53.7918 80.1164 54.4108L81.0628 54.0879C81.2779 54.7181 81.4795 55.3544 81.6675 55.9966L80.7077 56.2775C80.8906 56.9023 81.0602 57.5328 81.2161 58.1686L82.1873 57.9303C82.3459 58.5768 82.4907 59.2286 82.6214 59.8855L81.6407 60.0806C81.7677 60.719 81.8811 61.3623 81.9806 62.0101L82.969 61.8583C83.0699 62.5152 83.1568 63.1767 83.2293 63.8424L82.2352 63.9508C82.3056 64.5968 82.3622 65.2469 82.4047 65.901L83.4026 65.8361C83.4457 66.4988 83.4747 67.1655 83.4892 67.8356L82.4894 67.8572C82.4965 68.184 82.5 68.5116 82.5 68.84V68.9925H83.5V69.2975H82.5V69.45C82.5 69.7829 82.4868 70.1126 82.461 70.4386L83.4578 70.5177C83.4008 71.237 83.2867 71.9405 83.1201 72.624L82.1485 72.3871C81.9912 73.0323 81.7833 73.6582 81.5291 74.2606L82.4504 74.6493C82.1723 75.3085 81.8431 75.9414 81.4678 76.5431L80.6193 76.0139C80.2695 76.5746 79.8765 77.1065 79.4447 77.6047L80.2005 78.2596C79.7344 78.7975 79.2267 79.299 78.6826 79.759L78.037 78.9953C77.5337 79.4208 76.997 79.8079 76.4315 80.1522L76.9516 81.0064C76.3462 81.375 75.7101 81.6981 75.0485 81.971L74.6673 81.0465C74.0619 81.2962 73.4335 81.5003 72.7865 81.6547L73.0187 82.6274C72.334 82.7908 71.63 82.9027 70.9112 82.9586L70.8337 81.9616C70.5069 81.987 70.1767 82 69.8436 82C69.5134 82 69.1841 81.9964 68.8555 81.9894L68.834 82.9891C68.1604 82.9746 67.4901 82.9457 66.8235 82.9025L66.8881 81.9046C66.2305 81.862 65.5766 81.8054 64.9266 81.7349L64.8188 82.7291C64.1496 82.6566 63.4844 82.5697 62.8236 82.4689L62.9745 81.4804C62.323 81.3809 61.6759 81.2676 61.0335 81.1407L60.8397 82.1218C60.1793 81.9913 59.5237 81.8468 58.8733 81.6885L59.1097 80.7169C58.47 80.5612 57.8355 80.392 57.2065 80.2096L56.9279 81.17C56.2819 80.9826 55.6415 80.7816 55.0072 80.5672L55.3273 79.6198C54.7041 79.4092 54.0868 79.1854 53.4757 78.9488L53.1147 79.8814C52.4878 79.6387 51.8674 79.3827 51.2538 79.114L51.655 78.198C51.0527 77.9342 50.4571 77.6577 49.8685 77.3689L49.428 78.2666C48.8248 77.9706 48.2288 77.6619 47.6405 77.341L48.1195 76.4631C47.5424 76.1483 46.9728 75.8213 46.4111 75.4826L45.8947 76.339C45.3194 75.9921 44.7522 75.6331 44.1934 75.2624L44.7462 74.4291C44.1984 74.0658 43.659 73.6909 43.1282 73.3049L42.54 74.1137C41.9969 73.7187 41.4627 73.3124 40.9377 72.8949L41.56 72.1122C41.0457 71.7033 40.5405 71.2835 40.0447 70.8532L39.3892 71.6085C38.8822 71.1685 38.3849 70.7178 37.8975 70.2567L38.5848 69.5303C38.1077 69.0789 37.6404 68.6173 37.1832 68.1459L36.4653 68.842C35.9982 68.3603 35.5414 67.8685 35.0954 67.367L35.8426 66.7024C35.4063 66.2118 34.9805 65.7117 34.5656 65.2025L33.7903 65.8342C33.3666 65.3141 32.9539 64.7847 32.5528 64.2464L33.3546 63.6489C32.9625 63.1226 32.5816 62.5876 32.2123 62.0442L31.3852 62.6063C31.0082 62.0516 30.6431 61.4884 30.2902 60.917L31.141 60.3915C30.7963 59.8335 30.4636 59.2675 30.1431 58.6939L29.2701 59.1816C28.9432 58.5965 28.6288 58.0036 28.3272 57.4032L29.2208 56.9543C28.9265 56.3686 28.6448 55.7757 28.376 55.176L27.4635 55.5851C27.1894 54.9738 26.9285 54.3555 26.6809 53.7305L27.6107 53.3623C27.3695 52.7533 27.1413 52.1379 26.9266 51.5164L25.9814 51.843C25.7627 51.2102 25.5576 50.5711 25.3664 49.9262L26.3252 49.642C26.1391 49.0144 25.9666 48.3811 25.8078 47.7425L24.8374 47.9837C24.6759 47.3341 24.5285 46.6792 24.3954 46.0191L25.3756 45.8214C25.2463 45.18 25.1307 44.5336 25.0294 43.8826L24.0413 44.0365C23.9385 43.3762 23.8499 42.7113 23.776 42.042L24.7699 41.9322C24.6982 41.2829 24.6405 40.6293 24.5971 39.9719L23.5993 40.0377C23.5553 39.3714 23.5258 38.7011 23.5111 38.0274L24.5108 38.0054C24.5036 37.677 24.5 37.3477 24.5 37.0175Z" stroke="black" stroke-width="2" stroke-dasharray="2 2"/>
<g clip-path="url(#clip0_26_496)">
<path d="M61.1426 43.1027C62.8156 43.2168 64.2414 43.8822 65.4202 45.0989C66.5989 46.3156 67.1882 47.7795 67.1882 49.4906C67.1882 51.2396 66.5608 52.7415 65.3061 53.9963C64.0513 55.251 62.5494 55.8784 60.8004 55.8784H56.6939V64.5476H58.6331C58.7471 64.2814 58.9278 64.0628 59.1749 63.8917C59.4221 63.7206 59.6787 63.635 59.9449 63.635C60.3251 63.635 60.6483 63.7681 60.9144 64.0343C61.1806 64.3004 61.3137 64.6236 61.3137 65.0039C61.3137 65.3841 61.1806 65.7073 60.9144 65.9734C60.6483 66.2396 60.3251 66.3727 59.9449 66.3727C59.7548 66.3727 59.5741 66.3347 59.403 66.2586C59.2319 66.1826 59.0798 66.0685 58.9468 65.9164C58.8137 65.7643 58.7091 65.6122 58.6331 65.4601H56.2376C55.9335 65.4601 55.7814 65.308 55.7814 65.0039V55.8784H53.5V63.6921C53.7662 63.8061 53.9848 63.9867 54.1559 64.2339C54.327 64.481 54.4125 64.7377 54.4125 65.0039C54.4125 65.3841 54.2795 65.7073 54.0133 65.9734C53.7471 66.2396 53.424 66.3727 53.0437 66.3727C52.6635 66.3727 52.3403 66.2396 52.0741 65.9734C51.808 65.7073 51.6749 65.3841 51.6749 65.0039C51.6749 64.7377 51.7605 64.481 51.9316 64.2339C52.1027 63.9867 52.3213 63.8061 52.5875 63.6921V55.8784H50.3061V61.8099C50.3061 62.1141 50.154 62.2662 49.8498 62.2662H47.4544C47.3403 62.5324 47.1597 62.751 46.9125 62.9221C46.6654 63.0932 46.4087 63.1788 46.1426 63.1788C45.7624 63.1788 45.4392 63.0457 45.173 62.7795C44.9068 62.5134 44.7738 62.1902 44.7738 61.8099C44.7738 61.4297 44.9068 61.1065 45.173 60.8404C45.4392 60.5742 45.7624 60.4411 46.1426 60.4411C46.4087 60.4411 46.6654 60.5267 46.9125 60.6978C47.1597 60.8689 47.3403 61.0875 47.4544 61.3537H49.3935V55.8784H44.3745C43.7281 55.8784 43.0247 55.7168 42.2643 55.3936C41.5038 55.0704 40.8954 54.6807 40.4392 54.2244C40.4392 54.2244 40.4202 54.2054 40.3821 54.1674C39.9639 53.7111 39.6122 53.1217 39.327 52.3993C39.0418 51.6769 38.8992 51.0115 38.8992 50.4031C38.8992 48.8822 39.4316 47.5894 40.4962 46.5248C41.5608 45.4601 42.8536 44.9278 44.3745 44.9278C44.8688 44.9278 45.3441 44.9848 45.8004 45.0989C45.9525 43.8442 46.4087 42.675 47.1692 41.5913C47.9297 40.5077 48.8897 39.6521 50.0494 39.0248C51.2091 38.3974 52.4354 38.0837 53.7281 38.0837C55.211 38.0837 56.6844 38.578 58.1483 39.5666C59.6122 40.5552 60.6103 41.7339 61.1426 43.1027ZM45.6863 61.8099C45.6863 61.8099 45.6863 61.886 45.6863 62.0381C45.6863 62.1902 45.8384 62.2662 46.1426 62.2662C46.4468 62.2662 46.5989 62.1141 46.5989 61.8099C46.5989 61.5058 46.4468 61.3537 46.1426 61.3537C45.8384 61.3537 45.6863 61.5058 45.6863 61.8099ZM60.4011 65.0039C60.4011 65.0039 60.4011 64.9278 60.4011 64.7757C60.4011 64.6236 60.249 64.5476 59.9449 64.5476C59.6407 64.5476 59.4886 64.6997 59.4886 65.0039C59.4886 65.308 59.6407 65.4601 59.9449 65.4601C60.249 65.4601 60.4011 65.308 60.4011 65.0039ZM52.5875 65.0039C52.5875 65.0039 52.5875 65.0799 52.5875 65.232C52.5875 65.3841 52.7395 65.4601 53.0437 65.4601C53.3479 65.4601 53.5 65.308 53.5 65.0039C53.5 64.6997 53.3479 64.5476 53.0437 64.5476C52.7395 64.5476 52.5875 64.6997 52.5875 65.0039ZM64.5646 53.4259C65.0589 53.0077 65.4677 52.4088 65.7909 51.6293C66.1141 50.8499 66.2757 50.1369 66.2757 49.4906C66.2757 48.0077 65.7433 46.7244 64.6787 45.6407C63.6141 44.5571 62.3213 44.0153 60.8004 44.0153C60.6103 44.0153 60.4772 43.9202 60.4011 43.7301C60.097 42.8556 59.5932 42.0571 58.8897 41.3347C58.1863 40.6122 57.3783 40.0419 56.4658 39.6236C55.5532 39.2054 54.6407 38.9963 53.7281 38.9963C51.865 38.9963 50.2395 39.6521 48.8517 40.9639C47.4639 42.2757 46.7319 43.8632 46.6559 45.7263C46.6559 46.0305 46.5038 46.1826 46.1996 46.1826C46.1616 46.1826 46.1046 46.1636 46.0285 46.1255C45.4962 45.9354 44.9449 45.8404 44.3745 45.8404C43.1198 45.8404 42.0456 46.2871 41.1521 47.1807C40.2586 48.0742 39.8118 49.1483 39.8118 50.4031C39.8118 50.8974 39.9354 51.4487 40.1825 52.0571C40.4297 52.6655 40.7243 53.1598 41.0665 53.54C41.0665 53.578 41.0856 53.597 41.1236 53.597C41.4658 53.9772 41.9601 54.3004 42.6065 54.5666C43.2529 54.8328 43.8422 54.9658 44.3745 54.9658H60.8004C61.4087 54.9658 62.0836 54.8137 62.8251 54.5096C63.5665 54.2054 64.1464 53.8442 64.5646 53.4259ZM48.0247 53.1407C48.3289 53.1407 48.481 53.2928 48.481 53.597C48.481 53.9012 48.3289 54.0533 48.0247 54.0533H44.3745C44.0703 54.0533 43.9183 53.9012 43.9183 53.597C43.9183 53.2928 44.0703 53.1407 44.3745 53.1407H48.0247ZM49.8498 53.1407C50.154 53.1407 50.3061 53.2928 50.3061 53.597C50.3061 53.9012 50.154 54.0533 49.8498 54.0533H49.3935C49.0894 54.0533 48.9373 53.9012 48.9373 53.597C48.9373 53.2928 49.0894 53.1407 49.3935 53.1407H49.8498Z" fill="black"/>
</g>
</g>
<defs>
<filter id="filter0_d_26_496" x="0.5" y="0" width="106" height="106" filterUnits="userSpaceOnUse" color-interpolation-filters="sRGB">
<feFlood flood-opacity="0" result="BackgroundImageFix"/>
<feColorMatrix in="SourceAlpha" type="matrix" values="0 0 0 0 0 0 0 0 0 0 0 0 0 0 0 0 0 0 127 0" result="hardAlpha"/>
<feMorphology radius="3" operator="dilate" in="SourceAlpha" result="effect1_dropShadow_26_496"/>
<feOffset/>
<feGaussianBlur stdDeviation="10"/>
<feComposite in2="hardAlpha" operator="out"/>
<feColorMatrix type="matrix" values="0 0 0 0 0 0 0 0 0 0 0 0 0 0 0 0 0 0 0.05 0"/>
<feBlend mode="normal" in2="BackgroundImageFix" result="effect1_dropShadow_26_496"/>
<feBlend mode="normal" in="SourceGraphic" in2="effect1_dropShadow_26_496" result="shape"/>
</filter>
<clipPath id="clip0_26_496">
<rect width="30" height="30" fill="white" transform="matrix(1 0 0 -1 38.5 67)"/>
</clipPath>
</defs>
</svg>
