<svg width="107" height="106" viewBox="0 0 107 106" fill="none" xmlns="http://www.w3.org/2000/svg">
<g filter="url(#filter0_d_26_561)">
<g clip-path="url(#clip0_26_561)">
<path d="M23.5 37.0175C23.5 29.2758 29.8092 23 37.5509 23C62.8676 23 83.5 43.5233 83.5 68.84V69.45C83.5 76.9335 77.3271 83 69.8436 83C44.4482 83 23.5 62.4129 23.5 37.0175Z" fill="#609FEF"/>
<g clip-path="url(#clip1_26_561)">
<path d="M61.1426 43.1026C62.8156 43.2167 64.2414 43.8821 65.4202 45.0988C66.5989 46.3155 67.1882 47.7794 67.1882 49.4904C67.1882 51.2395 66.5608 52.7414 65.3061 53.9961C64.0513 55.2509 62.5494 55.8783 60.8004 55.8783H56.6939V64.5475H58.6331C58.7471 64.2813 58.9278 64.0627 59.1749 63.8916C59.4221 63.7205 59.6787 63.6349 59.9449 63.6349C60.3251 63.6349 60.6483 63.768 60.9144 64.0342C61.1806 64.3003 61.3137 64.6235 61.3137 65.0037C61.3137 65.384 61.1806 65.7072 60.9144 65.9733C60.6483 66.2395 60.3251 66.3726 59.9449 66.3726C59.7548 66.3726 59.5741 66.3345 59.403 66.2585C59.2319 66.1824 59.0798 66.0684 58.9468 65.9163C58.8137 65.7642 58.7091 65.6121 58.6331 65.46H56.2376C55.9335 65.46 55.7814 65.3079 55.7814 65.0037V55.8783H53.5V63.692C53.7662 63.806 53.9848 63.9866 54.1559 64.2338C54.327 64.4809 54.4125 64.7376 54.4125 65.0037C54.4125 65.384 54.2795 65.7072 54.0133 65.9733C53.7471 66.2395 53.424 66.3726 53.0437 66.3726C52.6635 66.3726 52.3403 66.2395 52.0741 65.9733C51.808 65.7072 51.6749 65.384 51.6749 65.0037C51.6749 64.7376 51.7605 64.4809 51.9316 64.2338C52.1027 63.9866 52.3213 63.806 52.5875 63.692V55.8783H50.3061V61.8098C50.3061 62.114 50.154 62.2661 49.8498 62.2661H47.4544C47.3403 62.5323 47.1597 62.7509 46.9125 62.922C46.6654 63.0931 46.4087 63.1786 46.1426 63.1786C45.7624 63.1786 45.4392 63.0456 45.173 62.7794C44.9068 62.5132 44.7738 62.19 44.7738 61.8098C44.7738 61.4296 44.9068 61.1064 45.173 60.8402C45.4392 60.5741 45.7624 60.441 46.1426 60.441C46.4087 60.441 46.6654 60.5266 46.9125 60.6977C47.1597 60.8688 47.3403 61.0874 47.4544 61.3535H49.3935V55.8783H44.3745C43.7281 55.8783 43.0247 55.7167 42.2643 55.3935C41.5038 55.0703 40.8954 54.6805 40.4392 54.2243C40.4392 54.2243 40.4202 54.2053 40.3821 54.1672C39.9639 53.711 39.6122 53.1216 39.327 52.3992C39.0418 51.6767 38.8992 51.0113 38.8992 50.403C38.8992 48.8821 39.4316 47.5893 40.4962 46.5247C41.5608 45.46 42.8536 44.9277 44.3745 44.9277C44.8688 44.9277 45.3441 44.9847 45.8004 45.0988C45.9525 43.844 46.4087 42.6748 47.1692 41.5912C47.9297 40.5075 48.8897 39.652 50.0494 39.0247C51.2091 38.3973 52.4354 38.0836 53.7281 38.0836C55.211 38.0836 56.6844 38.5779 58.1483 39.5665C59.6122 40.5551 60.6103 41.7338 61.1426 43.1026ZM45.6863 61.8098C45.6863 61.8098 45.6863 61.8859 45.6863 62.038C45.6863 62.19 45.8384 62.2661 46.1426 62.2661C46.4468 62.2661 46.5989 62.114 46.5989 61.8098C46.5989 61.5056 46.4468 61.3535 46.1426 61.3535C45.8384 61.3535 45.6863 61.5056 45.6863 61.8098ZM60.4011 65.0037C60.4011 65.0037 60.4011 64.9277 60.4011 64.7756C60.4011 64.6235 60.249 64.5475 59.9449 64.5475C59.6407 64.5475 59.4886 64.6996 59.4886 65.0037C59.4886 65.3079 59.6407 65.46 59.9449 65.46C60.249 65.46 60.4011 65.3079 60.4011 65.0037ZM52.5875 65.0037C52.5875 65.0037 52.5875 65.0798 52.5875 65.2319C52.5875 65.384 52.7395 65.46 53.0437 65.46C53.3479 65.46 53.5 65.3079 53.5 65.0037C53.5 64.6996 53.3479 64.5475 53.0437 64.5475C52.7395 64.5475 52.5875 64.6996 52.5875 65.0037ZM64.5646 53.4258C65.0589 53.0075 65.4677 52.4087 65.7909 51.6292C66.1141 50.8497 66.2757 50.1368 66.2757 49.4904C66.2757 48.0075 65.7433 46.7243 64.6787 45.6406C63.6141 44.557 62.3213 44.0151 60.8004 44.0151C60.6103 44.0151 60.4772 43.9201 60.4011 43.73C60.097 42.8554 59.5932 42.057 58.8897 41.3345C58.1863 40.6121 57.3783 40.0418 56.4658 39.6235C55.5532 39.2053 54.6407 38.9961 53.7281 38.9961C51.865 38.9961 50.2395 39.652 48.8517 40.9638C47.4639 42.2756 46.7319 43.8631 46.6559 45.7262C46.6559 46.0304 46.5038 46.1824 46.1996 46.1824C46.1616 46.1824 46.1046 46.1634 46.0285 46.1254C45.4962 45.9353 44.9449 45.8402 44.3745 45.8402C43.1198 45.8402 42.0456 46.287 41.1521 47.1805C40.2586 48.0741 39.8118 49.1482 39.8118 50.403C39.8118 50.8973 39.9354 51.4486 40.1825 52.057C40.4297 52.6653 40.7243 53.1596 41.0665 53.5399C41.0665 53.5779 41.0856 53.5969 41.1236 53.5969C41.4658 53.9771 41.9601 54.3003 42.6065 54.5665C43.2529 54.8326 43.8422 54.9657 44.3745 54.9657H60.8004C61.4087 54.9657 62.0836 54.8136 62.8251 54.5094C63.5665 54.2053 64.1464 53.844 64.5646 53.4258ZM48.0247 53.1406C48.3289 53.1406 48.481 53.2927 48.481 53.5969C48.481 53.9011 48.3289 54.0532 48.0247 54.0532H44.3745C44.0703 54.0532 43.9183 53.9011 43.9183 53.5969C43.9183 53.2927 44.0703 53.1406 44.3745 53.1406H48.0247ZM49.8498 53.1406C50.154 53.1406 50.3061 53.2927 50.3061 53.5969C50.3061 53.9011 50.154 54.0532 49.8498 54.0532H49.3935C49.0894 54.0532 48.9373 53.9011 48.9373 53.5969C48.9373 53.2927 49.0894 53.1406 49.3935 53.1406H49.8498Z" fill="black"/>
</g>
<g filter="url(#filter1_d_26_561)">
<path d="M23.5 36.0175C23.5 28.2758 29.8092 22 37.5509 22C62.8676 22 83.5 42.5233 83.5 67.84V68.45C83.5 75.9335 77.3271 82 69.8436 82C44.4482 82 23.5 61.4129 23.5 36.0175Z" fill="#5399E2"/>
<path d="M24.5 36.0175C24.5 35.7305 24.5093 35.4459 24.5277 35.1638L23.5298 35.0989C23.57 34.4806 23.6505 33.8732 23.7687 33.2793L24.7494 33.4744C24.8613 32.9122 25.0096 32.363 25.1917 31.8294L24.2453 31.5064C24.4442 30.9235 24.6805 30.3579 24.9515 29.8123L25.8471 30.2571C26.1008 29.7462 26.3873 29.254 26.7038 28.7835L25.874 28.2254C26.2163 27.7164 26.5911 27.231 26.9955 26.7722L27.7457 27.4333C28.122 27.0064 28.5258 26.6041 28.9542 26.2293L28.2959 25.4766C28.7561 25.0741 29.2429 24.701 29.7531 24.3603L30.3084 25.192C30.7801 24.8771 31.2732 24.5921 31.7852 24.3397L31.3429 23.4428C31.8892 23.1735 32.4555 22.9385 33.0388 22.7408L33.3598 23.6879C33.8941 23.5068 34.4438 23.3593 35.0064 23.2481L34.8124 22.2671C35.4066 22.1496 36.0141 22.0696 36.6323 22.0296L36.6968 23.0275C36.9791 23.0093 37.2638 23 37.5509 23C37.8793 23 38.2069 23.0035 38.5337 23.0106L38.5552 22.0108C39.2253 22.0252 39.8919 22.054 40.5548 22.0968L40.4903 23.0947C41.1443 23.137 41.7946 23.1933 42.4408 23.2633L42.5485 22.2691C43.2143 22.3413 43.8758 22.4276 44.5328 22.5279L44.3819 23.5165C45.0299 23.6154 45.6734 23.7281 46.3121 23.8544L46.5061 22.8734C47.1631 23.0033 47.8151 23.1473 48.4618 23.3049L48.225 24.2765C48.8611 24.4315 49.492 24.6001 50.1172 24.7818L50.3964 23.8216C51.0389 24.0084 51.6756 24.2088 52.3063 24.4226L51.9852 25.3696C52.6048 25.5796 53.2184 25.8028 53.8256 26.0387L54.1878 25.1066C54.811 25.3488 55.4277 25.6042 56.0375 25.8724L55.6349 26.7878C56.2334 27.051 56.8252 27.327 57.4098 27.6152L57.852 26.7183C58.4514 27.0138 59.0435 27.3221 59.6279 27.6426L59.147 28.5194C59.7201 28.8337 60.2856 29.1601 60.8432 29.4984L61.3618 28.6433C61.9331 28.9899 62.4963 29.3484 63.051 29.7188L62.4957 30.5504C63.0393 30.9133 63.5745 31.2877 64.101 31.6732L64.6918 30.8664C65.2306 31.261 65.7606 31.667 66.2813 32.0841L65.6561 32.8645C66.166 33.273 66.6668 33.6922 67.1582 34.122L67.8165 33.3693C68.319 33.8088 68.8119 34.2591 69.2947 34.7197L68.6044 35.4433C69.0769 35.8941 69.5396 36.355 69.9922 36.8258L70.7131 36.1328C71.1756 36.614 71.6277 37.1051 72.0691 37.606L71.3188 38.2671C71.7504 38.7569 72.1715 39.2562 72.5818 39.7645L73.36 39.1365C73.7789 39.6557 74.1868 40.1842 74.5833 40.7216L73.7786 41.3152C74.166 41.8404 74.5422 42.3742 74.9069 42.9165L75.7366 42.3584C76.1089 42.9118 76.4693 43.4738 76.8177 44.0439L75.9643 44.5653C76.3044 45.1218 76.6326 45.6863 76.9486 46.2583L77.8239 45.7747C78.1462 46.3581 78.4562 46.9493 78.7534 47.5478L77.8578 47.9926C78.1476 48.5764 78.4252 49.1673 78.6899 49.765L79.6042 49.36C79.8741 49.9691 80.131 50.5852 80.3746 51.2078L79.4433 51.5722C79.6807 52.1788 79.9051 52.7918 80.1164 53.4108L81.0628 53.0879C81.2779 53.7181 81.4795 54.3544 81.6675 54.9966L80.7077 55.2775C80.8906 55.9023 81.0602 56.5328 81.2161 57.1686L82.1873 56.9303C82.3459 57.5768 82.4907 58.2286 82.6214 58.8855L81.6407 59.0806C81.7677 59.719 81.8811 60.3623 81.9806 61.0101L82.969 60.8583C83.0699 61.5152 83.1568 62.1767 83.2293 62.8424L82.2352 62.9508C82.3056 63.5968 82.3622 64.2469 82.4047 64.901L83.4026 64.8361C83.4457 65.4988 83.4747 66.1655 83.4892 66.8356L82.4894 66.8572C82.4965 67.184 82.5 67.5116 82.5 67.84V67.9925H83.5V68.2975H82.5V68.45C82.5 68.7829 82.4868 69.1126 82.461 69.4386L83.4578 69.5177C83.4008 70.237 83.2867 70.9405 83.1201 71.624L82.1485 71.3871C81.9912 72.0323 81.7833 72.6582 81.5291 73.2606L82.4504 73.6493C82.1723 74.3085 81.8431 74.9414 81.4678 75.5431L80.6193 75.0139C80.2695 75.5746 79.8765 76.1065 79.4447 76.6047L80.2005 77.2596C79.7344 77.7975 79.2267 78.299 78.6826 78.759L78.037 77.9953C77.5337 78.4208 76.997 78.8079 76.4315 79.1522L76.9516 80.0064C76.3462 80.375 75.7101 80.6981 75.0485 80.971L74.6673 80.0465C74.0619 80.2962 73.4335 80.5003 72.7865 80.6547L73.0187 81.6274C72.334 81.7908 71.63 81.9027 70.9112 81.9586L70.8337 80.9616C70.5069 80.987 70.1767 81 69.8436 81C69.5134 81 69.1841 80.9964 68.8555 80.9894L68.834 81.9891C68.1604 81.9746 67.4901 81.9457 66.8235 81.9025L66.8881 80.9046C66.2305 80.862 65.5766 80.8054 64.9266 80.7349L64.8188 81.7291C64.1496 81.6566 63.4844 81.5697 62.8236 81.4689L62.9745 80.4804C62.323 80.3809 61.6759 80.2676 61.0335 80.1407L60.8397 81.1218C60.1793 80.9913 59.5237 80.8468 58.8733 80.6885L59.1097 79.7169C58.47 79.5612 57.8355 79.392 57.2065 79.2096L56.9279 80.17C56.2819 79.9826 55.6415 79.7816 55.0072 79.5672L55.3273 78.6198C54.7041 78.4092 54.0868 78.1854 53.4757 77.9488L53.1147 78.8814C52.4878 78.6387 51.8674 78.3827 51.2538 78.114L51.655 77.198C51.0527 76.9342 50.4571 76.6577 49.8685 76.3689L49.428 77.2666C48.8248 76.9706 48.2288 76.6619 47.6405 76.341L48.1195 75.4631C47.5424 75.1483 46.9728 74.8213 46.4111 74.4826L45.8947 75.339C45.3194 74.9921 44.7522 74.6331 44.1934 74.2624L44.7462 73.4291C44.1984 73.0658 43.659 72.6909 43.1282 72.3049L42.54 73.1137C41.9969 72.7187 41.4627 72.3124 40.9377 71.8949L41.56 71.1122C41.0457 70.7033 40.5405 70.2835 40.0447 69.8532L39.3892 70.6085C38.8822 70.1685 38.3849 69.7178 37.8975 69.2567L38.5848 68.5303C38.1077 68.0789 37.6404 67.6173 37.1832 67.1459L36.4653 67.842C35.9982 67.3603 35.5414 66.8685 35.0954 66.367L35.8426 65.7024C35.4063 65.2118 34.9805 64.7117 34.5656 64.2025L33.7903 64.8342C33.3666 64.3141 32.9539 63.7847 32.5528 63.2464L33.3546 62.6489C32.9625 62.1226 32.5816 61.5876 32.2123 61.0442L31.3852 61.6063C31.0082 61.0516 30.6431 60.4884 30.2902 59.917L31.141 59.3915C30.7963 58.8335 30.4636 58.2675 30.1431 57.6939L29.2701 58.1816C28.9432 57.5965 28.6288 57.0036 28.3272 56.4032L29.2208 55.9543C28.9265 55.3686 28.6448 54.7757 28.376 54.176L27.4635 54.5851C27.1894 53.9738 26.9285 53.3555 26.6809 52.7305L27.6107 52.3623C27.3695 51.7533 27.1413 51.1379 26.9266 50.5164L25.9814 50.843C25.7627 50.2102 25.5576 49.5711 25.3664 48.9262L26.3252 48.642C26.1391 48.0144 25.9666 47.3811 25.8078 46.7425L24.8374 46.9837C24.6759 46.3341 24.5285 45.6792 24.3954 45.0191L25.3756 44.8214C25.2463 44.18 25.1307 43.5336 25.0294 42.8826L24.0413 43.0365C23.9385 42.3762 23.8499 41.7113 23.776 41.042L24.7699 40.9322C24.6982 40.2829 24.6405 39.6293 24.5971 38.9719L23.5993 39.0377C23.5553 38.3714 23.5258 37.7011 23.5111 37.0274L24.5108 37.0054C24.5036 36.677 24.5 36.3477 24.5 36.0175Z" stroke="black" stroke-width="2" stroke-dasharray="2 2"/>
<g clip-path="url(#clip2_26_561)">
<path d="M50.7624 52.1406C51.7509 52.1406 52.6065 52.5018 53.3289 53.2242C54.0513 53.9467 54.4125 54.8022 54.4125 55.7908V64.46C54.4125 64.7642 54.2605 64.9163 53.9563 64.9163C53.6521 64.9163 53.5 64.7642 53.5 64.46V55.7908C53.5 55.0303 53.2338 54.3839 52.7015 53.8516C52.1692 53.3193 51.5228 53.0531 50.7624 53.0531H48.9943L49.3935 55.7338C49.3935 55.7338 49.3935 55.7528 49.3935 55.7908C49.3935 56.095 49.2414 56.2471 48.9373 56.2471C48.8612 56.2471 48.8042 56.228 48.7662 56.19L48.424 56.076C48.3859 56.3421 48.2719 56.5703 48.0817 56.7604L48.481 61.209C48.481 61.2471 48.481 61.2661 48.481 61.2661C48.481 61.3801 48.443 61.4752 48.3669 61.5512L46.9981 63.3763C46.9221 63.4904 46.808 63.5474 46.6559 63.5474C46.5038 63.5474 46.3897 63.4904 46.3137 63.3763L44.9449 61.5512C44.8688 61.4752 44.8308 61.3801 44.8308 61.2661C44.8308 61.2661 44.8308 61.2471 44.8308 61.209L45.23 56.7604C45.0399 56.5703 44.9259 56.3421 44.8878 56.076L44.5456 56.19C44.5076 56.228 44.4506 56.2471 44.3745 56.2471C44.0703 56.2471 43.9183 56.095 43.9183 55.7908C43.9183 55.7528 43.9183 55.7338 43.9183 55.7338L44.3175 53.0531H42.5494C41.789 53.0531 41.1426 53.3193 40.6103 53.8516C40.0779 54.3839 39.8118 55.0303 39.8118 55.7908V59.441C39.8118 59.7452 39.6597 59.8972 39.3555 59.8972C39.0513 59.8972 38.8992 59.7452 38.8992 59.441V55.7908C38.8992 54.8022 39.2605 53.9467 39.9829 53.2242C40.7053 52.5018 41.5608 52.1406 42.5494 52.1406H44.0894C43.6711 51.7984 43.3099 51.3136 43.0057 50.6862C42.7015 50.0588 42.5494 49.479 42.5494 48.9467V48.4904C42.5494 48.1862 42.7015 48.0341 43.0057 48.0341C43.3099 48.0341 43.462 48.1862 43.462 48.4904V48.9467C43.462 49.8212 43.7757 50.5722 44.403 51.1995C45.0304 51.8269 45.7814 52.1406 46.6559 52.1406C47.5304 52.1406 48.2814 51.8269 48.9087 51.1995C49.5361 50.5722 49.8498 49.8212 49.8498 48.9467V47.1216H42.0932C41.7129 47.1216 41.3897 46.9885 41.1236 46.7223C40.8574 46.4562 40.7243 46.133 40.7243 45.7528C40.7243 45.4866 40.8194 45.2299 41.0095 44.9828C41.1996 44.7357 41.4087 44.555 41.6369 44.441C41.6749 43.8706 41.8745 43.2433 42.2357 42.5588C42.597 41.8744 43.0057 41.3421 43.462 40.9619V40.2775C43.462 39.9733 43.6141 39.8212 43.9183 39.8212C44.2224 39.8212 44.3745 39.9733 44.3745 40.2775V40.3915C44.6787 40.2395 44.9829 40.1064 45.2871 39.9923V39.3649C45.2871 39.0988 45.3726 38.8801 45.5437 38.709C45.7148 38.5379 45.9335 38.4524 46.1996 38.4524H47.1122C47.3783 38.4524 47.597 38.5379 47.7681 38.709C47.9392 38.8801 48.0247 39.0988 48.0247 39.3649V39.9923C48.3289 40.1064 48.6331 40.2395 48.9373 40.3915V40.2775C48.9373 39.9733 49.0894 39.8212 49.3935 39.8212C49.6977 39.8212 49.8498 39.9733 49.8498 40.2775V40.9619C50.3061 41.3421 50.7148 41.8744 51.076 42.5588C51.4373 43.2433 51.6369 43.8706 51.6749 44.441C51.827 44.517 51.9791 44.6216 52.1312 44.7547C52.2833 44.8877 52.3973 45.0398 52.4734 45.2109C52.5494 45.382 52.5875 45.5626 52.5875 45.7528C52.5875 46.133 52.4544 46.4562 52.1882 46.7223C51.9221 46.9885 51.5989 47.1216 51.2186 47.1216H50.7624V48.9467C50.7624 49.2889 50.6958 49.6691 50.5627 50.0874C50.4297 50.5056 50.2395 50.8953 49.9924 51.2566C49.7452 51.6178 49.4886 51.9125 49.2224 52.1406H50.7624ZM46.1996 39.3649V42.1026H47.1122V39.3649H46.1996ZM43.462 42.2737C42.9677 42.882 42.6635 43.5855 42.5494 44.3839H50.7624C50.6483 43.5855 50.3441 42.882 49.8498 42.2737V42.5588C49.8498 42.863 49.6977 43.0151 49.3935 43.0151C49.0894 43.0151 48.9373 42.863 48.9373 42.5588V41.4182C48.6711 41.228 48.3669 41.076 48.0247 40.9619V42.1026C48.0247 42.3687 47.9392 42.5874 47.7681 42.7585C47.597 42.9296 47.3783 43.0151 47.1122 43.0151H46.1996C45.9335 43.0151 45.7148 42.9296 45.5437 42.7585C45.3726 42.5874 45.2871 42.3687 45.2871 42.1026V40.9619C44.9449 41.076 44.6407 41.228 44.3745 41.4182V42.5588C44.3745 42.863 44.2224 43.0151 43.9183 43.0151C43.6141 43.0151 43.462 42.863 43.462 42.5588V42.2737ZM42.0932 45.2965C41.789 45.2965 41.6369 45.4486 41.6369 45.7528C41.6369 46.0569 41.789 46.209 42.0932 46.209H51.2186C51.5228 46.209 51.6749 46.0569 51.6749 45.7528C51.6749 45.4486 51.5228 45.2965 51.2186 45.2965H42.0932ZM48.3669 55.0493L48.1958 53.6805L47.3973 54.7071L48.3669 55.0493ZM44.9449 55.0493L45.9144 54.7071L45.116 53.6805L44.9449 55.0493ZM47.5114 53.0531H45.8004L46.6559 54.1368L47.5114 53.0531ZM47.5684 61.152L47.1692 57.1596H47.1122H46.1996C46.1996 57.1596 46.1806 57.1596 46.1426 57.1596L45.7433 61.152L46.6559 62.3497L47.5684 61.152ZM47.5684 55.7908V55.7338L46.6559 55.3915L45.7433 55.7338V55.7908C45.7433 56.095 45.8954 56.2471 46.1996 56.2471H47.1122C47.4163 56.2471 47.5684 56.095 47.5684 55.7908ZM38.8992 61.2661C38.8992 60.9619 39.0513 60.8098 39.3555 60.8098C39.6597 60.8098 39.8118 60.9619 39.8118 61.2661V64.46C39.8118 64.7642 39.6597 64.9163 39.3555 64.9163C39.0513 64.9163 38.8992 64.7642 38.8992 64.46V61.2661ZM45.2871 48.4904C45.2871 48.4904 45.211 48.4904 45.0589 48.4904C44.9068 48.4904 44.8308 48.3383 44.8308 48.0341C44.8308 47.7299 44.9829 47.5779 45.2871 47.5779C45.5913 47.5779 45.7433 47.7299 45.7433 48.0341C45.7433 48.3383 45.5913 48.4904 45.2871 48.4904ZM48.0247 48.4904C48.0247 48.4904 47.9487 48.4904 47.7966 48.4904C47.6445 48.4904 47.5684 48.3383 47.5684 48.0341C47.5684 47.7299 47.7205 47.5779 48.0247 47.5779C48.3289 47.5779 48.481 47.7299 48.481 48.0341C48.481 48.3383 48.3289 48.4904 48.0247 48.4904ZM45.5152 49.9163C45.8574 50.1444 46.2376 50.2585 46.6559 50.2585C47.0741 50.2585 47.4544 50.1444 47.7966 49.9163C47.8726 49.8782 47.9487 49.8592 48.0247 49.8592C48.3289 49.8592 48.481 50.0113 48.481 50.3155C48.481 50.4676 48.4049 50.6007 48.2529 50.7147C47.7966 51.0189 47.2643 51.171 46.6559 51.171C46.0475 51.171 45.5152 51.0189 45.0589 50.7147C44.9068 50.6007 44.8308 50.4676 44.8308 50.3155C44.8308 50.0113 44.9829 49.8592 45.2871 49.8592C45.3631 49.8592 45.4392 49.8782 45.5152 49.9163ZM41.6369 57.1596C41.6369 56.8554 41.789 56.7033 42.0932 56.7033C42.3973 56.7033 42.5494 56.8554 42.5494 57.1596V64.46C42.5494 64.7642 42.3973 64.9163 42.0932 64.9163C41.789 64.9163 41.6369 64.7642 41.6369 64.46V57.1596ZM50.7624 57.1596C50.7624 56.8554 50.9144 56.7033 51.2186 56.7033C51.5228 56.7033 51.6749 56.8554 51.6749 57.1596V64.46C51.6749 64.7642 51.5228 64.9163 51.2186 64.9163C50.9144 64.9163 50.7624 64.7642 50.7624 64.46V57.1596ZM59.8878 59.441C59.8878 59.441 59.8118 59.441 59.6597 59.441C59.5076 59.441 59.4316 59.2889 59.4316 58.9847C59.4316 58.6805 59.5836 58.5284 59.8878 58.5284C60.192 58.5284 60.3441 58.6805 60.3441 58.9847C60.3441 59.2889 60.192 59.441 59.8878 59.441ZM61.7129 59.441C61.7129 59.441 61.6369 59.441 61.4848 59.441C61.3327 59.441 61.2567 59.2889 61.2567 58.9847C61.2567 58.6805 61.4087 58.5284 61.7129 58.5284C62.0171 58.5284 62.1692 58.6805 62.1692 58.9847C62.1692 59.2889 62.0171 59.441 61.7129 59.441ZM63.538 59.441C63.538 59.441 63.462 59.441 63.3099 59.441C63.1578 59.441 63.0817 59.2889 63.0817 58.9847C63.0817 58.6805 63.2338 58.5284 63.538 58.5284C63.8422 58.5284 63.9943 58.6805 63.9943 58.9847C63.9943 59.2889 63.8422 59.441 63.538 59.441ZM57.6065 59.441H56.6939C56.3897 59.441 56.2376 59.2889 56.2376 58.9847C56.2376 58.6805 56.3897 58.5284 56.6939 58.5284H57.6065C57.9106 58.5284 58.0627 58.6805 58.0627 58.9847C58.0627 59.2889 57.9106 59.441 57.6065 59.441ZM59.8878 55.7908C59.8878 55.7908 59.8118 55.7908 59.6597 55.7908C59.5076 55.7908 59.4316 55.6387 59.4316 55.3345C59.4316 55.0303 59.5836 54.8782 59.8878 54.8782C60.192 54.8782 60.3441 55.0303 60.3441 55.3345C60.3441 55.6387 60.192 55.7908 59.8878 55.7908ZM61.7129 55.7908C61.7129 55.7908 61.6369 55.7908 61.4848 55.7908C61.3327 55.7908 61.2567 55.6387 61.2567 55.3345C61.2567 55.0303 61.4087 54.8782 61.7129 54.8782C62.0171 54.8782 62.1692 55.0303 62.1692 55.3345C62.1692 55.6387 62.0171 55.7908 61.7129 55.7908ZM63.538 55.7908C63.538 55.7908 63.462 55.7908 63.3099 55.7908C63.1578 55.7908 63.0817 55.6387 63.0817 55.3345C63.0817 55.0303 63.2338 54.8782 63.538 54.8782C63.8422 54.8782 63.9943 55.0303 63.9943 55.3345C63.9943 55.6387 63.8422 55.7908 63.538 55.7908ZM57.6065 55.7908H56.6939C56.3897 55.7908 56.2376 55.6387 56.2376 55.3345C56.2376 55.0303 56.3897 54.8782 56.6939 54.8782H57.6065C57.9106 54.8782 58.0627 55.0303 58.0627 55.3345C58.0627 55.6387 57.9106 55.7908 57.6065 55.7908ZM65.8194 49.403C66.1236 49.403 66.2757 49.555 66.2757 49.8592V60.8098C66.2757 61.114 66.1236 61.2661 65.8194 61.2661H60.8004V62.1786H62.1692C62.4734 62.1786 62.6255 62.3307 62.6255 62.6349V63.0912H65.8194C66.1236 63.0912 66.2757 63.2433 66.2757 63.5474C66.2757 63.8516 66.1236 64.0037 65.8194 64.0037H62.6255V64.46C62.6255 64.7642 62.4734 64.9163 62.1692 64.9163H56.6939C56.3897 64.9163 56.2376 64.7642 56.2376 64.46V64.0037H55.7814C55.4772 64.0037 55.3251 63.8516 55.3251 63.5474C55.3251 63.2433 55.4772 63.0912 55.7814 63.0912H56.2376V62.6349C56.2376 62.3307 56.3897 62.1786 56.6939 62.1786H58.0627V61.2661H55.7814C55.4772 61.2661 55.3251 61.114 55.3251 60.8098C55.3251 60.5056 55.4772 60.3535 55.7814 60.3535H65.3631V57.6159H55.7814C55.4772 57.6159 55.3251 57.4638 55.3251 57.1596C55.3251 56.8554 55.4772 56.7033 55.7814 56.7033H65.3631V53.9657H54.6977C54.3935 53.9657 54.2414 53.8136 54.2414 53.5094C54.2414 53.2052 54.3935 53.0531 54.6977 53.0531H65.3631V50.3155H64.4506C64.1464 50.3155 63.9943 50.1634 63.9943 49.8592C63.9943 49.555 64.1464 49.403 64.4506 49.403H65.8194ZM60.3441 63.0912C60.0399 63.0912 59.8878 62.9391 59.8878 62.6349V61.2661H58.9753V62.6349C58.9753 62.9391 58.8232 63.0912 58.519 63.0912H57.1502V64.0037H61.7129V63.0912H60.3441ZM52.5875 51.6843V49.8592C52.5875 49.555 52.7395 49.403 53.0437 49.403H62.6255C62.9297 49.403 63.0817 49.555 63.0817 49.8592C63.0817 50.1634 62.9297 50.3155 62.6255 50.3155H53.5V51.6843C53.5 51.9885 53.3479 52.1406 53.0437 52.1406C52.7395 52.1406 52.5875 51.9885 52.5875 51.6843ZM59.8878 52.1406C59.8878 52.1406 59.8118 52.1406 59.6597 52.1406C59.5076 52.1406 59.4316 51.9885 59.4316 51.6843C59.4316 51.3801 59.5836 51.228 59.8878 51.228C60.192 51.228 60.3441 51.3801 60.3441 51.6843C60.3441 51.9885 60.192 52.1406 59.8878 52.1406ZM61.7129 52.1406C61.7129 52.1406 61.6369 52.1406 61.4848 52.1406C61.3327 52.1406 61.2567 51.9885 61.2567 51.6843C61.2567 51.3801 61.4087 51.228 61.7129 51.228C62.0171 51.228 62.1692 51.3801 62.1692 51.6843C62.1692 51.9885 62.0171 52.1406 61.7129 52.1406ZM63.538 52.1406C63.538 52.1406 63.462 52.1406 63.3099 52.1406C63.1578 52.1406 63.0817 51.9885 63.0817 51.6843C63.0817 51.3801 63.2338 51.228 63.538 51.228C63.8422 51.228 63.9943 51.3801 63.9943 51.6843C63.9943 51.9885 63.8422 52.1406 63.538 52.1406ZM54.8688 51.228H57.6065C57.9106 51.228 58.0627 51.3801 58.0627 51.6843C58.0627 51.9885 57.9106 52.1406 57.6065 52.1406H54.8688C54.5646 52.1406 54.4125 51.9885 54.4125 51.6843C54.4125 51.3801 54.5646 51.228 54.8688 51.228ZM59.8878 48.4904C59.8878 48.4904 59.8118 48.4904 59.6597 48.4904C59.5076 48.4904 59.4316 48.3383 59.4316 48.0341C59.4316 47.7299 59.5836 47.5779 59.8878 47.5779C60.192 47.5779 60.3441 47.7299 60.3441 48.0341C60.3441 48.3383 60.192 48.4904 59.8878 48.4904ZM61.1996 47.1786C61.0475 47.1786 60.9335 47.1406 60.8574 47.0645C60.5913 46.7984 60.2681 46.6653 59.8878 46.6653C59.5076 46.6653 59.1844 46.7984 58.9182 47.0645C58.8422 47.1406 58.7281 47.1786 58.576 47.1786C58.2719 47.1786 58.1198 47.0265 58.1198 46.7223C58.1198 46.6083 58.1768 46.5132 58.2909 46.4372C58.7091 45.9809 59.2414 45.7528 59.8878 45.7528C60.5342 45.7528 61.0665 45.9809 61.4848 46.4372C61.5989 46.5132 61.6559 46.6083 61.6559 46.7223C61.6559 47.0265 61.5038 47.1786 61.1996 47.1786ZM57.3213 45.9239C57.0171 45.9239 56.865 45.7718 56.865 45.4676C56.865 45.3535 56.903 45.2395 56.9791 45.1254C57.2833 44.8212 57.711 44.555 58.2624 44.3269C58.8137 44.0988 59.3175 43.9847 59.7738 43.9847C59.8118 43.9847 59.8498 43.9847 59.8878 43.9847C60.9905 43.9847 61.9601 44.3649 62.7966 45.1254C62.8726 45.2014 62.9106 45.3155 62.9106 45.4676C62.9106 45.7718 62.7586 45.9239 62.4544 45.9239C62.3403 45.9239 62.2452 45.8858 62.1692 45.8098C61.5228 45.2014 60.7624 44.8972 59.8878 44.8972C59.8878 44.8972 59.8688 44.8972 59.8308 44.8972H59.7738C58.9373 44.8972 58.2338 45.1824 57.6635 45.7528C57.5494 45.8668 57.4354 45.9239 57.3213 45.9239Z" fill="black"/>
</g>
</g>
</g>
<path d="M24.5 37.0175C24.5 36.7305 24.5093 36.4459 24.5277 36.1638L23.5298 36.0989C23.57 35.4806 23.6505 34.8732 23.7687 34.2793L24.7494 34.4744C24.8613 33.9122 25.0096 33.363 25.1917 32.8294L24.2453 32.5064C24.4442 31.9235 24.6805 31.3579 24.9515 30.8123L25.8471 31.2571C26.1008 30.7462 26.3873 30.254 26.7038 29.7835L25.874 29.2254C26.2163 28.7164 26.5911 28.231 26.9955 27.7722L27.7457 28.4333C28.122 28.0064 28.5258 27.6041 28.9542 27.2293L28.2959 26.4766C28.7561 26.0741 29.2429 25.701 29.7531 25.3603L30.3084 26.192C30.7801 25.8771 31.2732 25.5921 31.7852 25.3397L31.3429 24.4428C31.8892 24.1735 32.4555 23.9385 33.0388 23.7408L33.3598 24.6879C33.8941 24.5068 34.4438 24.3593 35.0064 24.2481L34.8124 23.2671C35.4066 23.1496 36.0141 23.0696 36.6323 23.0296L36.6968 24.0275C36.9791 24.0093 37.2638 24 37.5509 24C37.8793 24 38.2069 24.0035 38.5337 24.0106L38.5552 23.0108C39.2253 23.0252 39.8919 23.054 40.5548 23.0968L40.4903 24.0947C41.1443 24.137 41.7946 24.1933 42.4408 24.2633L42.5485 23.2691C43.2143 23.3413 43.8758 23.4276 44.5328 23.5279L44.3819 24.5165C45.0299 24.6154 45.6734 24.7281 46.3121 24.8544L46.5061 23.8734C47.1631 24.0033 47.8151 24.1473 48.4618 24.3049L48.225 25.2765C48.8611 25.4315 49.492 25.6001 50.1172 25.7818L50.3964 24.8216C51.0389 25.0084 51.6756 25.2088 52.3063 25.4226L51.9852 26.3696C52.6048 26.5796 53.2184 26.8028 53.8256 27.0387L54.1878 26.1066C54.811 26.3488 55.4277 26.6042 56.0375 26.8724L55.6349 27.7878C56.2334 28.051 56.8252 28.327 57.4098 28.6152L57.852 27.7183C58.4514 28.0138 59.0435 28.3221 59.6279 28.6426L59.147 29.5194C59.7201 29.8337 60.2856 30.1601 60.8432 30.4984L61.3618 29.6433C61.9331 29.9899 62.4963 30.3484 63.051 30.7188L62.4957 31.5504C63.0393 31.9133 63.5745 32.2877 64.101 32.6732L64.6918 31.8664C65.2306 32.261 65.7606 32.667 66.2813 33.0841L65.6561 33.8645C66.166 34.273 66.6668 34.6922 67.1582 35.122L67.8165 34.3693C68.319 34.8088 68.8119 35.2591 69.2947 35.7197L68.6044 36.4433C69.0769 36.8941 69.5396 37.355 69.9922 37.8258L70.7131 37.1328C71.1756 37.614 71.6277 38.1051 72.0691 38.606L71.3188 39.2671C71.7504 39.7569 72.1715 40.2562 72.5818 40.7645L73.36 40.1365C73.7789 40.6557 74.1868 41.1842 74.5833 41.7216L73.7786 42.3152C74.166 42.8404 74.5422 43.3742 74.9069 43.9165L75.7366 43.3584C76.1089 43.9118 76.4693 44.4738 76.8177 45.0439L75.9643 45.5653C76.3044 46.1218 76.6326 46.6863 76.9486 47.2583L77.8239 46.7747C78.1462 47.3581 78.4562 47.9493 78.7534 48.5478L77.8578 48.9926C78.1476 49.5764 78.4252 50.1673 78.6899 50.765L79.6042 50.36C79.8741 50.9691 80.131 51.5852 80.3746 52.2078L79.4433 52.5722C79.6807 53.1788 79.9051 53.7918 80.1164 54.4108L81.0628 54.0879C81.2779 54.7181 81.4795 55.3544 81.6675 55.9966L80.7077 56.2775C80.8906 56.9023 81.0602 57.5328 81.2161 58.1686L82.1873 57.9303C82.3459 58.5768 82.4907 59.2286 82.6214 59.8855L81.6407 60.0806C81.7677 60.719 81.8811 61.3623 81.9806 62.0101L82.969 61.8583C83.0699 62.5152 83.1568 63.1767 83.2293 63.8424L82.2352 63.9508C82.3056 64.5968 82.3622 65.2469 82.4047 65.901L83.4026 65.8361C83.4457 66.4988 83.4747 67.1655 83.4892 67.8356L82.4894 67.8572C82.4965 68.184 82.5 68.5116 82.5 68.84V68.9925H83.5V69.2975H82.5V69.45C82.5 69.7829 82.4868 70.1126 82.461 70.4386L83.4578 70.5177C83.4008 71.237 83.2867 71.9405 83.1201 72.624L82.1485 72.3871C81.9912 73.0323 81.7833 73.6582 81.5291 74.2606L82.4504 74.6493C82.1723 75.3085 81.8431 75.9414 81.4678 76.5431L80.6193 76.0139C80.2695 76.5746 79.8765 77.1065 79.4447 77.6047L80.2005 78.2596C79.7344 78.7975 79.2267 79.299 78.6826 79.759L78.037 78.9953C77.5337 79.4208 76.997 79.8079 76.4315 80.1522L76.9516 81.0064C76.3462 81.375 75.7101 81.6981 75.0485 81.971L74.6673 81.0465C74.0619 81.2962 73.4335 81.5003 72.7865 81.6547L73.0187 82.6274C72.334 82.7908 71.63 82.9027 70.9112 82.9586L70.8337 81.9616C70.5069 81.987 70.1767 82 69.8436 82C69.5134 82 69.1841 81.9964 68.8555 81.9894L68.834 82.9891C68.1604 82.9746 67.4901 82.9457 66.8235 82.9025L66.8881 81.9046C66.2305 81.862 65.5766 81.8054 64.9266 81.7349L64.8188 82.7291C64.1496 82.6566 63.4844 82.5697 62.8236 82.4689L62.9745 81.4804C62.323 81.3809 61.6759 81.2676 61.0335 81.1407L60.8397 82.1218C60.1793 81.9913 59.5237 81.8468 58.8733 81.6885L59.1097 80.7169C58.47 80.5612 57.8355 80.392 57.2065 80.2096L56.9279 81.17C56.2819 80.9826 55.6415 80.7816 55.0072 80.5672L55.3273 79.6198C54.7041 79.4092 54.0868 79.1854 53.4757 78.9488L53.1147 79.8814C52.4878 79.6387 51.8674 79.3827 51.2538 79.114L51.655 78.198C51.0527 77.9342 50.4571 77.6577 49.8685 77.3689L49.428 78.2666C48.8248 77.9706 48.2288 77.6619 47.6405 77.341L48.1195 76.4631C47.5424 76.1483 46.9728 75.8213 46.4111 75.4826L45.8947 76.339C45.3194 75.9921 44.7522 75.6331 44.1934 75.2624L44.7462 74.4291C44.1984 74.0658 43.659 73.6909 43.1282 73.3049L42.54 74.1137C41.9969 73.7187 41.4627 73.3124 40.9377 72.8949L41.56 72.1122C41.0457 71.7033 40.5405 71.2835 40.0447 70.8532L39.3892 71.6085C38.8822 71.1685 38.3849 70.7178 37.8975 70.2567L38.5848 69.5303C38.1077 69.0789 37.6404 68.6173 37.1832 68.1459L36.4653 68.842C35.9982 68.3603 35.5414 67.8685 35.0954 67.367L35.8426 66.7024C35.4063 66.2118 34.9805 65.7117 34.5656 65.2025L33.7903 65.8342C33.3666 65.3141 32.9539 64.7847 32.5528 64.2464L33.3546 63.6489C32.9625 63.1226 32.5816 62.5876 32.2123 62.0442L31.3852 62.6063C31.0082 62.0516 30.6431 61.4884 30.2902 60.917L31.141 60.3915C30.7963 59.8335 30.4636 59.2675 30.1431 58.6939L29.2701 59.1816C28.9432 58.5965 28.6288 58.0036 28.3272 57.4032L29.2208 56.9543C28.9265 56.3686 28.6448 55.7757 28.376 55.176L27.4635 55.5851C27.1894 54.9738 26.9285 54.3555 26.6809 53.7305L27.6107 53.3623C27.3695 52.7533 27.1413 52.1379 26.9266 51.5164L25.9814 51.843C25.7627 51.2102 25.5576 50.5711 25.3664 49.9262L26.3252 49.642C26.1391 49.0144 25.9666 48.3811 25.8078 47.7425L24.8374 47.9837C24.6759 47.3341 24.5285 46.6792 24.3954 46.0191L25.3756 45.8214C25.2463 45.18 25.1307 44.5336 25.0294 43.8826L24.0413 44.0365C23.9385 43.3762 23.8499 42.7113 23.776 42.042L24.7699 41.9322C24.6982 41.2829 24.6405 40.6293 24.5971 39.9719L23.5993 40.0377C23.5553 39.3714 23.5258 38.7011 23.5111 38.0274L24.5108 38.0054C24.5036 37.677 24.5 37.3477 24.5 37.0175Z" stroke="black" stroke-width="2" stroke-dasharray="2 2"/>
</g>
<defs>
<filter id="filter0_d_26_561" x="0.5" y="0" width="106" height="106" filterUnits="userSpaceOnUse" color-interpolation-filters="sRGB">
<feFlood flood-opacity="0" result="BackgroundImageFix"/>
<feColorMatrix in="SourceAlpha" type="matrix" values="0 0 0 0 0 0 0 0 0 0 0 0 0 0 0 0 0 0 127 0" result="hardAlpha"/>
<feMorphology radius="3" operator="dilate" in="SourceAlpha" result="effect1_dropShadow_26_561"/>
<feOffset/>
<feGaussianBlur stdDeviation="10"/>
<feComposite in2="hardAlpha" operator="out"/>
<feColorMatrix type="matrix" values="0 0 0 0 0 0 0 0 0 0 0 0 0 0 0 0 0 0 0.05 0"/>
<feBlend mode="normal" in2="BackgroundImageFix" result="effect1_dropShadow_26_561"/>
<feBlend mode="normal" in="SourceGraphic" in2="effect1_dropShadow_26_561" result="shape"/>
</filter>
<filter id="filter1_d_26_561" x="0.5" y="-1" width="106" height="106" filterUnits="userSpaceOnUse" color-interpolation-filters="sRGB">
<feFlood flood-opacity="0" result="BackgroundImageFix"/>
<feColorMatrix in="SourceAlpha" type="matrix" values="0 0 0 0 0 0 0 0 0 0 0 0 0 0 0 0 0 0 127 0" result="hardAlpha"/>
<feMorphology radius="3" operator="dilate" in="SourceAlpha" result="effect1_dropShadow_26_561"/>
<feOffset/>
<feGaussianBlur stdDeviation="10"/>
<feComposite in2="hardAlpha" operator="out"/>
<feColorMatrix type="matrix" values="0 0 0 0 0 0 0 0 0 0 0 0 0 0 0 0 0 0 0.05 0"/>
<feBlend mode="normal" in2="BackgroundImageFix" result="effect1_dropShadow_26_561"/>
<feBlend mode="normal" in="SourceGraphic" in2="effect1_dropShadow_26_561" result="shape"/>
</filter>
<clipPath id="clip0_26_561">
<path d="M23.5 37.0175C23.5 29.2758 29.8092 23 37.5509 23C62.8676 23 83.5 43.5233 83.5 68.84V69.45C83.5 76.9335 77.3271 83 69.8436 83C44.4482 83 23.5 62.4129 23.5 37.0175Z" fill="white"/>
</clipPath>
<clipPath id="clip1_26_561">
<rect width="30" height="30" fill="white" transform="matrix(1 0 0 -1 38.5 67)"/>
</clipPath>
<clipPath id="clip2_26_561">
<rect width="30" height="30" fill="white" transform="matrix(1 0 0 -1 38.5 66)"/>
</clipPath>
</defs>
</svg>
